<?xml version="1.0" standalone="no"?>
<!DOCTYPE svg PUBLIC "-//W3C//DTD SVG 20010904//EN"
 "http://www.w3.org/TR/2001/REC-SVG-20010904/DTD/svg10.dtd">
<svg version="1.0" xmlns="http://www.w3.org/2000/svg"
 width="512.000000pt" height="512.000000pt" viewBox="0 0 512.000000 512.000000"
 preserveAspectRatio="xMidYMid meet">
<metadata>
Created by potrace 1.14, written by Peter Selinger 2001-2017
</metadata>
<g transform="translate(0.000000,512.000000) scale(0.100000,-0.100000)"
fill="#000000" stroke="none">
<path d="M671 3931 c-19 -15 -25 -30 -29 -74 l-4 -56 -270 1 c-179 0 -279 -4
-296 -12 -84 -35 -92 -175 -14 -226 22 -14 64 -17 304 -17 l278 -1 0 -60 c0
-57 -2 -62 -28 -73 -61 -27 -62 -35 -62 -428 0 -471 -17 -441 243 -436 30 1
46 8 68 32 16 17 28 34 28 37 -1 4 -1 39 0 77 l1 70 450 -1 c248 0 452 -3 454
-5 21 -22 86 -105 86 -110 0 -4 -12 -10 -27 -14 -55 -13 -237 -106 -331 -168
-111 -73 -159 -113 -255 -212 -61 -63 -187 -232 -187 -251 0 -4 -6 -15 -14
-23 -23 -28 -84 -183 -110 -281 -34 -126 -46 -211 -48 -323 -2 -116 15 -153
88 -193 32 -18 110 -11 141 12 61 45 65 59 78 234 7 98 12 125 40 220 90 302
309 533 640 676 111 48 108 48 119 -31 4 -27 9 -61 11 -75 25 -177 41 -217
103 -253 32 -19 56 -20 440 -20 363 0 411 2 440 17 39 20 79 78 87 126 3 19 7
46 10 60 2 14 7 45 10 70 13 107 18 131 25 135 13 8 166 -61 250 -112 189
-114 321 -254 410 -430 43 -87 86 -216 96 -292 3 -25 8 -54 10 -64 1 -10 4
-54 5 -98 2 -87 18 -123 72 -163 41 -31 115 -31 161 0 56 38 69 73 68 182 -4
291 -118 596 -307 819 -91 107 -241 237 -330 287 -16 9 -48 27 -70 41 -22 13
-87 45 -145 71 -58 26 -107 48 -108 50 -5 4 53 88 73 104 13 10 104 13 460 14
l445 1 0 -68 c0 -119 30 -147 156 -151 93 -2 131 8 161 43 22 25 22 29 23 388
1 400 -1 408 -60 433 -29 12 -30 15 -30 75 l0 62 253 1 c138 0 266 1 283 1 45
1 91 49 99 103 9 63 -23 127 -73 142 -13 4 -144 7 -291 7 l-269 0 -4 56 c-6
68 -33 96 -86 89 -48 -7 -72 -39 -72 -97 l0 -48 -274 0 c-306 0 -320 -2 -350
-65 -20 -43 -20 -79 0 -121 31 -67 36 -68 346 -68 l279 -1 -2 -61 c-2 -56 -4
-62 -28 -73 -50 -22 -61 -57 -61 -195 l0 -124 -390 0 -390 0 0 159 c0 87 1
159 2 161 6 5 -45 68 -65 79 -26 15 -1595 20 -1638 6 -15 -5 -37 -20 -50 -34
-23 -24 -24 -34 -29 -197 l-5 -172 -387 -1 -388 -1 0 125 c0 109 -3 129 -21
158 -11 19 -31 37 -43 40 -21 5 -23 12 -25 68 l-2 63 279 0 c309 0 315 1 346
68 30 63 11 136 -45 169 -27 16 -59 18 -304 18 l-275 -1 0 50 c0 41 -5 54 -26
74 -32 30 -70 32 -103 6z m1999 -700 c326 -86 435 -493 195 -732 -276 -276
-748 -72 -740 321 3 126 54 233 152 319 104 92 257 128 393 92z"/>
<path d="M2485 2981 c-147 -67 -153 -272 -10 -341 36 -17 58 -21 100 -18 196
16 240 276 60 359 -51 23 -99 24 -150 0z"/>
</g>
</svg>
